<svg width="30" height="30" viewBox="0 0 30 30" xmlns="http://www.w3.org/2000/svg" class="facebook"><title>Facebook</title><path d="M15 0C6.71631 0 0 6.75716 0 15.0912C0 22.623 5.48438 28.8667 12.6565 30V19.4544H8.84678V15.0912H12.6562V11.7656C12.6562 7.98155 14.8966 5.89324 18.322 5.89324C19.9632 5.89324 21.6803 6.18829 21.6803 6.18829V9.90214H19.7883C19.7593 9.90214 19.7303 9.90244 19.7019 9.90303C18.1087 9.93457 17.4853 10.8412 17.3657 11.8672C17.3657 11.8684 17.3654 11.8696 17.3654 11.8705C17.3634 11.8885 17.3613 11.9062 17.3596 11.9241C17.3596 11.9247 17.3596 11.925 17.3593 11.9256C17.3578 11.9406 17.3566 11.956 17.3552 11.971C17.3549 11.9742 17.3546 11.9778 17.3543 11.981C17.3531 11.9946 17.3522 12.0081 17.3514 12.0214C17.3511 12.0264 17.3505 12.0314 17.3502 12.0364C17.3496 12.0476 17.349 12.0588 17.3484 12.07C17.3481 12.0774 17.3476 12.0848 17.3473 12.0921C17.3464 12.1092 17.3458 12.1263 17.3452 12.1437C17.3452 12.1452 17.3452 12.1464 17.3449 12.1478C17.3443 12.1638 17.344 12.18 17.3438 12.1959C17.3438 12.1985 17.3438 12.2012 17.3435 12.2038C17.3432 12.2224 17.3432 12.2413 17.3432 12.2599V15.0912H21.503L20.8389 19.4544H17.3435V29.9997C24.5156 28.8687 30 22.625 30 15.0912C30 6.75716 23.2837 0 15 0Z"></path></svg>