<svg width="37" height="29" viewBox="0 0 37 29" xmlns="http://www.w3.org/2000/svg" class="twitter"><title>Twitter</title><path d="M11.6358 29C25.5981 29 33.2349 17.8442 33.2349 8.1699C33.2349 7.85304 33.2275 7.5376 33.2127 7.2236C34.6942 6.19023 35.9832 4.90137 37 3.43267C35.6399 4.01501 34.1762 4.40752 32.6399 4.58451C34.2072 3.67817 35.4105 2.24373 35.9773 0.53524C34.5106 1.3745 32.8856 1.98396 31.157 2.31224C29.7732 0.890639 27.8003 0 25.6173 0C21.4245 0 18.0249 3.27852 18.0249 7.32065C18.0249 7.89586 18.0915 8.45393 18.2218 8.98917C11.914 8.68373 6.31812 5.7706 2.5752 1.34024C1.92252 2.42214 1.5466 3.67959 1.5466 5.01983C1.5466 7.56044 2.88748 9.80131 4.92396 11.113C3.67928 11.0759 2.5086 10.7462 1.48592 10.1967C1.48444 10.2266 1.48444 10.258 1.48444 10.2894C1.48444 13.8349 4.10108 16.7951 7.57464 17.4659C6.93676 17.6329 6.26632 17.7229 5.57368 17.7229C5.08528 17.7229 4.60872 17.6758 4.14696 17.5901C5.1134 20.499 7.91504 22.6157 11.2391 22.6742C8.64024 24.6382 5.36796 25.8085 1.81152 25.8085C1.1988 25.8085 0.59496 25.7743 0 25.7072C3.3596 27.7882 7.3482 29 11.6358 29Z"></path></svg>